<svg xmlns="http://www.w3.org/2000/svg" viewBox="0 0 512 512">
  <defs>
    <linearGradient id="g" x1="0%" y1="0%" x2="100%" y2="100%">
      <stop offset="0%" stop-color="#d9a4c7" />
      <stop offset="100%" stop-color="#f1d6e7" />
    </linearGradient>
    <clipPath id="c"><rect width="512" height="512" rx="108" /></clipPath>
  </defs>
  <g clip-path="url(#c)">
    <rect width="512" height="512" fill="#17131b" />
    <path
      transform="translate(256,256) scale(2.2)"
      fill="url(#g)"
      d="M45.3,-58.8C58.5,-49.7,68.5,-34.6,72.6,-17.9C76.7,-1.3,74.9,17,66.9,31.8C58.9,46.6,44.7,57.9,29,63.6C13.3,69.3,-3.9,69.4,-20.5,64.9C-37.1,60.4,-53.1,51.3,-63.4,37.5C-73.7,23.6,-78.3,5,-74.6,-11.4C-70.9,-27.8,-58.9,-42,-44.6,-51C-30.3,-60,-15.1,-63.8,1.6,-66.1C18.4,-68.4,36.8,-69.2,45.3,-58.8Z"
    />
  </g>
</svg>
